Coordinates
nRows=9
nColumns=38

# SIMM Motion File Header:
name Coordinates
datacolumns 38
datarows 9
otherdata 1
range 1.34258000000000010000 1.35058000000000010000

Units are S.I. units (second, meters, Newtons, ...)
Angles are in degrees.

endheader
time	pelvis_tilt	pelvis_list	pelvis_rotation	pelvis_tx	pelvis_ty	pelvis_tz	hip_flexion_r	hip_adduction_r	hip_rotation_r	knee_angle_r	ankle_angle_r	subtalar_angle_r	mtp_angle_r	hip_flexion_l	hip_adduction_l	hip_rotation_l	knee_angle_l	ankle_angle_l	subtalar_angle_l	mtp_angle_l	lumbar_extension	lumbar_bending	lumbar_rotation	arm_flex_r	arm_add_r	arm_rot_r	elbow_flex_r	pro_sup_r	wrist_flex_r	wrist_dev_r	arm_flex_l	arm_add_l	arm_rot_l	elbow_flex_l	pro_sup_l	wrist_flex_l	wrist_dev_l
      1.34258000000000010000	      1.40094472645495840000	      2.88735413841101880000	      6.20691571470146550000	      0.75576018433289716000	      0.98475490461602555000	     -0.36730683981804241000	     31.28297949935137000000	     -8.48738808423326320000	     -5.09115040166250840000	   -105.06618434037820000000	     -7.67598788763614960000	      0.00000000000009207951	     -0.00000000000007735707	      0.24871302764389611000	      7.11029781275258980000	      3.24068482891027410000	    -30.09482990656239900000	     18.86601241926182800000	      0.00000000000001704155	     -0.00000000000009389140	    -16.55823388117390500000	     -4.58486587841585180000	    -10.81248587238002300000	    -28.13653262488421800000	    -23.87554094324707800000	      6.12848474581950240000	    109.84950949217310000000	     66.90463492545555400000	     -0.00000000000001205247	     -0.00000000000001153013	     -1.49681115593932090000	    -34.35280537358247700000	     -2.68055412019163870000	    120.16984816874630000000	    101.86316392148466000000	     -0.00000000000008301052	     -0.00000000000001878382
      1.34358000000000000000	      1.39262057174163020000	      2.79072978312740720000	      6.25505683360556120000	      0.75590480893532563000	      0.98540935395449025000	     -0.36737616172327325000	     31.47165203711370700000	     -8.39470028546957890000	     -5.17784347094330060000	   -104.75450126801582000000	     -7.63329321333044670000	      0.00000000000009239163	     -0.00000000000007757415	     -0.09900245545962982300	      6.97753257089151720000	      3.34856814882956930000	    -29.77237754922721200000	     18.67772965841603400000	      0.00000000000001756190	     -0.00000000000009444353	    -16.52710020805483300000	     -4.44826076665011970000	    -10.95222646098638300000	    -28.29135138774101300000	    -23.89145042278041600000	      5.98775412298935540000	    109.95507640592976000000	     66.75771947680998200000	     -0.00000000000001209080	     -0.00000000000001153506	     -1.48226745754921390000	    -34.28686904632299800000	     -2.63276940878804270000	    120.24161005623677000000	    101.79404439947527000000	     -0.00000000000008324241	     -0.00000000000001870492
      1.34458000000000010000	      1.38444891051945750000	      2.69323525276281780000	      6.30269194613638550000	      0.75605628692846216000	      0.98606963001288750000	     -0.36744330189639623000	     31.65608590968377800000	     -8.30091259089717330000	     -5.26526569683359200000	   -104.43583111100854000000	     -7.58991036083960860000	      0.00000000000009270813	     -0.00000000000007779153	     -0.44705642897283981000	      6.84257241601536400000	      3.45519328630524210000	    -29.44787615815790000000	     18.48114637666795100000	      0.00000000000001804427	     -0.00000000000009498963	    -16.49496662070843600000	     -4.31084044363878500000	    -11.09089840699444100000	    -28.44659756560870200000	    -23.90859962580218200000	      5.84689409460413230000	    110.06237951090212000000	     66.61783302873782000000	     -0.00000000000001213114	     -0.00000000000001154165	     -1.47151162689082730000	    -34.22389775837363900000	     -2.58173616791679360000	    120.31671865057852000000	    101.71801360595681000000	     -0.00000000000008347326	     -0.00000000000001863144
      1.34558000000000000000	      1.37643876008477690000	      2.59492991712602760000	      6.34975701762251530000	      0.75621444334253318000	      0.98673554303092326000	     -0.36750826502515865000	     31.83630787202311700000	     -8.20607109301914230000	     -5.35328724314525940000	   -104.11025219580600000000	     -7.54585232650306640000	      0.00000000000009302916	     -0.00000000000007800815	     -0.79532430067950799000	      6.70550512550568100000	      3.56039964586878540000	    -29.12154082258986100000	     18.27619897700796500000	      0.00000000000001852163	     -0.00000000000009549388	    -16.46187473496254600000	     -4.17266515512970320000	    -11.22843328124216300000	    -28.60221730179152600000	    -23.92699919792323700000	      5.70589430947525140000	    110.17125625489470000000	     66.48505184774050700000	     -0.00000000000001217203	     -0.00000000000001155053	     -1.46441900651542830000	    -34.16384815065152500000	     -2.52744108978861260000	    120.39502551757985000000	    101.63529145583385000000	     -0.00000000000008370375	     -0.00000000000001855863
      1.34658000000000010000	      1.36859715929158930000	      2.49587200628554220000	      6.39618843569411590000	      0.75637909605225873000	      0.98740690223002836000	     -0.36757105662395168000	     32.01234786931130600000	     -8.11021897372932800000	     -5.44177864829804660000	   -103.77784099531561000000	     -7.50113574792730020000	      0.00000000000009335013	     -0.00000000000007822399	     -1.14367908173688690000	      6.56642032387268420000	      3.66403015063912200000	    -28.79358811237037200000	     18.06282806279889600000	      0.00000000000001896591	     -0.00000000000009597970	    -16.42786594385475100000	     -4.03379353457663560000	    -11.36476476140023600000	    -28.75815480298576400000	    -23.94665900824372800000	      5.56474565904653140000	    110.28154713639000000000	     66.35943303349763800000	     -0.00000000000001221432	     -0.00000000000001155891	     -1.46087006448983780000	    -34.10667246595902900000	     -2.46988281562273480000	    120.47638425001927000000	    101.54610743993018000000	     -0.00000000000008393410	     -0.00000000000001848084
      1.34758000000000000000	      1.36092913198321220000	      2.39611813028070400000	      6.44192573084178390000	      0.75655005606785053000	      0.98808351624233992000	     -0.36763168599471119000	     32.18423796255078200000	     -8.01339756217341130000	     -5.53061376029893200000	   -103.43867167359910000000	     -7.45578026231934480000	      0.00000000000009367280	     -0.00000000000007843873	     -1.49199135986143070000	      6.42540881074739900000	      3.76593432563389550000	    -28.46423636632841400000	     17.84098082353467500000	      0.00000000000001940463	     -0.00000000000009645683	    -16.39298134976801800000	     -3.89428159905414750000	    -11.49983108948806500000	    -28.91435240738028200000	    -23.96758783259622300000	      5.42344035676566620000	    110.39309577329112000000	     66.24101496032426400000	     -0.00000000000001225761	     -0.00000000000001156706	     -1.46075046218181970000	    -34.05231905099210400000	     -2.40907152013702410000	    120.56065074351791000000	    101.45069970241546000000	     -0.00000000000008416343	     -0.00000000000001839460
      1.34858000000000010000	      1.35343778098282060000	      2.29572306374664100000	      6.48691184555030190000	      0.75672712847209755000	      0.98876519325520706000	     -0.36769016588175635000	     32.35201192780357400000	     -7.91564624921412730000	     -5.61967034494810580000	   -103.09281590491241000000	     -7.40980823668474020000	      0.00000000000009399381	     -0.00000000000007865275	     -1.84012986466848180000	      6.28256209081448700000	      3.86596898114692600000	    -28.13370489444493600000	     17.61061188329505400000	      0.00000000000001983819	     -0.00000000000009693336	    -16.35726165922772100000	     -3.75418261749266740000	    -11.63357525881264500000	    -29.07075068850026200000	    -23.98979314099897700000	      5.28197199048589640000	    110.50574905016026000000	     66.12981765310935600000	     -0.00000000000001230179	     -0.00000000000001157643	     -1.46395114152185020000	    -34.00073275826397200000	     -2.34502850134915210000	    120.64768349309192000000	    101.34931415352580000000	     -0.00000000000008439430	     -0.00000000000001830921
      1.34958000000000000000	      1.34612439272128780000	      2.19473952723392430000	      6.53109336960688940000	      0.75691011340969883000	      0.98945174098636646000	     -0.36774651210193371000	     32.51570485327782500000	     -7.81700236124478210000	     -5.70883067483992330000	   -102.74034267926187000000	     -7.36324450462649870000	      0.00000000000009431550	     -0.00000000000007886526	     -2.18796207099735440000	      6.13797186593323920000	      3.96399879089488840000	    -27.80221293030662400000	     17.37168157085822500000	      0.00000000000002025584	     -0.00000000000009738422	    -16.32074707976244500000	     -3.61354698018585110000	    -11.76594516791732500000	    -29.22728856629140600000	    -24.01328087477899200000	      5.14033557708005960000	    110.61935725795666000000	     66.02584316447529000000	     -0.00000000000001234523	     -0.00000000000001158624	     -1.47036842127972770000	    -33.95185534394324400000	     -2.27778576879131520000	    120.73734389990244000000	    101.24220358047189000000	     -0.00000000000008462534	     -0.00000000000001823975
      1.35058000000000010000	      1.33898852382235780000	      2.09321797893141470000	      6.57442078478495160000	      0.75709880701413190000	      0.99014296691521320000	     -0.36780074323842976000	     32.67535275299268700000	     -7.71750106259646800000	     -5.79798212164294390000	   -102.38131812693256000000	     -7.31611610528431640000	      0.00000000000009463631	     -0.00000000000007907727	     -2.53535474901416390000	      5.99172960641969960000	      4.05989698903687390000	    -27.46997894353200900000	     17.12415819887054300000	      0.00000000000002068979	     -0.00000000000009787193	    -16.28347720898573300000	     -3.47242207091711700000	    -11.89689378821129600000	    -29.38390341363890100000	    -24.03805524503168600000	      4.99852761300240810000	    110.73377424319230000000	     65.92907595170497400000	     -0.00000000000001238862	     -0.00000000000001159646	     -1.47990408286345930000	    -33.90562586553305400000	     -2.20738563259240460000	    120.82949657410008000000	    101.12962676250991000000	     -0.00000000000008485716	     -0.00000000000001817541
